<mxfile host="Electron" agent="Mozilla/5.0 (Windows NT 10.0; Win64; x64) AppleWebKit/537.36 (KHTML, like Gecko) draw.io/24.7.5 Chrome/126.0.6478.183 Electron/31.3.0 Safari/537.36" version="24.7.5">
  <diagram name="Page-1" id="03018318-947c-dd8e-b7a3-06fadd420f32">
    <mxGraphModel dx="1098" dy="868" grid="1" gridSize="10" guides="1" tooltips="1" connect="1" arrows="1" fold="1" page="1" pageScale="1" pageWidth="1100" pageHeight="850" background="none" math="0" shadow="0">
      <root>
        <mxCell id="0" />
        <mxCell id="1" parent="0" />
        <mxCell id="5DiPYkisPRgFO6FxNOpy-1" value="" style="strokeWidth=1;shadow=0;dashed=0;align=center;html=1;shape=mxgraph.mockup.containers.browserWindow;rSize=0;strokeColor=#666666;strokeColor2=#008cff;strokeColor3=#c4c4c4;mainText=,;recursiveResize=0;movable=0;resizable=0;rotatable=0;deletable=0;editable=0;locked=1;connectable=0;" vertex="1" parent="1">
          <mxGeometry x="10" width="1070" height="830" as="geometry" />
        </mxCell>
        <mxCell id="5DiPYkisPRgFO6FxNOpy-2" value="Page 1" style="strokeWidth=1;shadow=0;dashed=0;align=center;html=1;shape=mxgraph.mockup.containers.anchor;fontSize=17;fontColor=#666666;align=left;whiteSpace=wrap;" vertex="1" parent="5DiPYkisPRgFO6FxNOpy-1">
          <mxGeometry x="60" y="12" width="110" height="26" as="geometry" />
        </mxCell>
        <mxCell id="5DiPYkisPRgFO6FxNOpy-3" value="https://www.draw.io" style="strokeWidth=1;shadow=0;dashed=0;align=center;html=1;shape=mxgraph.mockup.containers.anchor;rSize=0;fontSize=17;fontColor=#666666;align=left;" vertex="1" parent="5DiPYkisPRgFO6FxNOpy-1">
          <mxGeometry x="130" y="60" width="250" height="26" as="geometry" />
        </mxCell>
        <mxCell id="5DiPYkisPRgFO6FxNOpy-4" value="" style="shape=table;html=1;whiteSpace=wrap;startSize=0;container=1;collapsible=0;childLayout=tableLayout;strokeWidth=2;" vertex="1" parent="1">
          <mxGeometry x="70" y="210" width="970" height="440" as="geometry" />
        </mxCell>
        <mxCell id="5DiPYkisPRgFO6FxNOpy-5" value="" style="shape=tableRow;horizontal=0;startSize=0;swimlaneHead=0;swimlaneBody=0;top=0;left=0;bottom=0;right=0;collapsible=0;dropTarget=0;fillColor=none;points=[[0,0.5],[1,0.5]];portConstraint=eastwest;" vertex="1" parent="5DiPYkisPRgFO6FxNOpy-4">
          <mxGeometry width="970" height="40" as="geometry" />
        </mxCell>
        <mxCell id="5DiPYkisPRgFO6FxNOpy-6" value="Number" style="shape=partialRectangle;html=1;whiteSpace=wrap;connectable=0;fillColor=#e1d5e7;top=0;left=0;bottom=0;right=0;overflow=hidden;fontStyle=1;strokeColor=#9673a6;" vertex="1" parent="5DiPYkisPRgFO6FxNOpy-5">
          <mxGeometry width="162" height="40" as="geometry">
            <mxRectangle width="162" height="40" as="alternateBounds" />
          </mxGeometry>
        </mxCell>
        <mxCell id="5DiPYkisPRgFO6FxNOpy-7" value="Title" style="shape=partialRectangle;html=1;whiteSpace=wrap;connectable=0;fillColor=#e1d5e7;top=0;left=0;bottom=0;right=0;overflow=hidden;fontStyle=1;strokeColor=#9673a6;" vertex="1" parent="5DiPYkisPRgFO6FxNOpy-5">
          <mxGeometry x="162" width="388" height="40" as="geometry">
            <mxRectangle width="388" height="40" as="alternateBounds" />
          </mxGeometry>
        </mxCell>
        <mxCell id="5DiPYkisPRgFO6FxNOpy-24" value="Author" style="shape=partialRectangle;html=1;whiteSpace=wrap;connectable=0;fillColor=#e1d5e7;top=0;left=0;bottom=0;right=0;overflow=hidden;fontStyle=1;strokeColor=#9673a6;" vertex="1" parent="5DiPYkisPRgFO6FxNOpy-5">
          <mxGeometry x="550" width="170" height="40" as="geometry">
            <mxRectangle width="170" height="40" as="alternateBounds" />
          </mxGeometry>
        </mxCell>
        <mxCell id="5DiPYkisPRgFO6FxNOpy-21" value="Recommended" style="shape=partialRectangle;html=1;whiteSpace=wrap;connectable=0;fillColor=#e1d5e7;top=0;left=0;bottom=0;right=0;overflow=hidden;fontStyle=1;strokeColor=#9673a6;" vertex="1" parent="5DiPYkisPRgFO6FxNOpy-5">
          <mxGeometry x="720" width="100" height="40" as="geometry">
            <mxRectangle width="100" height="40" as="alternateBounds" />
          </mxGeometry>
        </mxCell>
        <mxCell id="5DiPYkisPRgFO6FxNOpy-18" value="Views" style="shape=partialRectangle;html=1;whiteSpace=wrap;connectable=0;fillColor=#e1d5e7;top=0;left=0;bottom=0;right=0;overflow=hidden;fontStyle=1;strokeColor=#9673a6;" vertex="1" parent="5DiPYkisPRgFO6FxNOpy-5">
          <mxGeometry x="820" width="90" height="40" as="geometry">
            <mxRectangle width="90" height="40" as="alternateBounds" />
          </mxGeometry>
        </mxCell>
        <mxCell id="5DiPYkisPRgFO6FxNOpy-15" value="Created&lt;br&gt;Time" style="shape=partialRectangle;html=1;whiteSpace=wrap;connectable=0;fillColor=#e1d5e7;top=0;left=0;bottom=0;right=0;overflow=hidden;fontStyle=1;strokeColor=#9673a6;" vertex="1" parent="5DiPYkisPRgFO6FxNOpy-5">
          <mxGeometry x="910" width="60" height="40" as="geometry">
            <mxRectangle width="60" height="40" as="alternateBounds" />
          </mxGeometry>
        </mxCell>
        <mxCell id="5DiPYkisPRgFO6FxNOpy-8" value="" style="shape=tableRow;horizontal=0;startSize=0;swimlaneHead=0;swimlaneBody=0;top=0;left=0;bottom=0;right=0;collapsible=0;dropTarget=0;fillColor=none;points=[[0,0.5],[1,0.5]];portConstraint=eastwest;" vertex="1" parent="5DiPYkisPRgFO6FxNOpy-4">
          <mxGeometry y="40" width="970" height="40" as="geometry" />
        </mxCell>
        <mxCell id="5DiPYkisPRgFO6FxNOpy-9" value="data" style="shape=partialRectangle;html=1;whiteSpace=wrap;connectable=0;fillColor=none;top=0;left=0;bottom=0;right=0;overflow=hidden;" vertex="1" parent="5DiPYkisPRgFO6FxNOpy-8">
          <mxGeometry width="162" height="40" as="geometry">
            <mxRectangle width="162" height="40" as="alternateBounds" />
          </mxGeometry>
        </mxCell>
        <mxCell id="5DiPYkisPRgFO6FxNOpy-10" value="data" style="shape=partialRectangle;html=1;whiteSpace=wrap;connectable=0;fillColor=none;top=0;left=0;bottom=0;right=0;overflow=hidden;" vertex="1" parent="5DiPYkisPRgFO6FxNOpy-8">
          <mxGeometry x="162" width="388" height="40" as="geometry">
            <mxRectangle width="388" height="40" as="alternateBounds" />
          </mxGeometry>
        </mxCell>
        <mxCell id="5DiPYkisPRgFO6FxNOpy-25" value="data" style="shape=partialRectangle;html=1;whiteSpace=wrap;connectable=0;fillColor=none;top=0;left=0;bottom=0;right=0;overflow=hidden;" vertex="1" parent="5DiPYkisPRgFO6FxNOpy-8">
          <mxGeometry x="550" width="170" height="40" as="geometry">
            <mxRectangle width="170" height="40" as="alternateBounds" />
          </mxGeometry>
        </mxCell>
        <mxCell id="5DiPYkisPRgFO6FxNOpy-22" value="data" style="shape=partialRectangle;html=1;whiteSpace=wrap;connectable=0;fillColor=none;top=0;left=0;bottom=0;right=0;overflow=hidden;" vertex="1" parent="5DiPYkisPRgFO6FxNOpy-8">
          <mxGeometry x="720" width="100" height="40" as="geometry">
            <mxRectangle width="100" height="40" as="alternateBounds" />
          </mxGeometry>
        </mxCell>
        <mxCell id="5DiPYkisPRgFO6FxNOpy-19" value="data" style="shape=partialRectangle;html=1;whiteSpace=wrap;connectable=0;fillColor=none;top=0;left=0;bottom=0;right=0;overflow=hidden;" vertex="1" parent="5DiPYkisPRgFO6FxNOpy-8">
          <mxGeometry x="820" width="90" height="40" as="geometry">
            <mxRectangle width="90" height="40" as="alternateBounds" />
          </mxGeometry>
        </mxCell>
        <mxCell id="5DiPYkisPRgFO6FxNOpy-16" value="data" style="shape=partialRectangle;html=1;whiteSpace=wrap;connectable=0;fillColor=none;top=0;left=0;bottom=0;right=0;overflow=hidden;" vertex="1" parent="5DiPYkisPRgFO6FxNOpy-8">
          <mxGeometry x="910" width="60" height="40" as="geometry">
            <mxRectangle width="60" height="40" as="alternateBounds" />
          </mxGeometry>
        </mxCell>
        <mxCell id="5DiPYkisPRgFO6FxNOpy-11" value="" style="shape=tableRow;horizontal=0;startSize=0;swimlaneHead=0;swimlaneBody=0;top=0;left=0;bottom=0;right=0;collapsible=0;dropTarget=0;fillColor=none;points=[[0,0.5],[1,0.5]];portConstraint=eastwest;" vertex="1" parent="5DiPYkisPRgFO6FxNOpy-4">
          <mxGeometry y="80" width="970" height="40" as="geometry" />
        </mxCell>
        <mxCell id="5DiPYkisPRgFO6FxNOpy-12" value="data" style="shape=partialRectangle;html=1;whiteSpace=wrap;connectable=0;fillColor=none;top=0;left=0;bottom=0;right=0;overflow=hidden;" vertex="1" parent="5DiPYkisPRgFO6FxNOpy-11">
          <mxGeometry width="162" height="40" as="geometry">
            <mxRectangle width="162" height="40" as="alternateBounds" />
          </mxGeometry>
        </mxCell>
        <mxCell id="5DiPYkisPRgFO6FxNOpy-13" value="data" style="shape=partialRectangle;html=1;whiteSpace=wrap;connectable=0;fillColor=none;top=0;left=0;bottom=0;right=0;overflow=hidden;" vertex="1" parent="5DiPYkisPRgFO6FxNOpy-11">
          <mxGeometry x="162" width="388" height="40" as="geometry">
            <mxRectangle width="388" height="40" as="alternateBounds" />
          </mxGeometry>
        </mxCell>
        <mxCell id="5DiPYkisPRgFO6FxNOpy-26" value="data" style="shape=partialRectangle;html=1;whiteSpace=wrap;connectable=0;fillColor=none;top=0;left=0;bottom=0;right=0;overflow=hidden;" vertex="1" parent="5DiPYkisPRgFO6FxNOpy-11">
          <mxGeometry x="550" width="170" height="40" as="geometry">
            <mxRectangle width="170" height="40" as="alternateBounds" />
          </mxGeometry>
        </mxCell>
        <mxCell id="5DiPYkisPRgFO6FxNOpy-23" value="data" style="shape=partialRectangle;html=1;whiteSpace=wrap;connectable=0;fillColor=none;top=0;left=0;bottom=0;right=0;overflow=hidden;" vertex="1" parent="5DiPYkisPRgFO6FxNOpy-11">
          <mxGeometry x="720" width="100" height="40" as="geometry">
            <mxRectangle width="100" height="40" as="alternateBounds" />
          </mxGeometry>
        </mxCell>
        <mxCell id="5DiPYkisPRgFO6FxNOpy-20" value="data" style="shape=partialRectangle;html=1;whiteSpace=wrap;connectable=0;fillColor=none;top=0;left=0;bottom=0;right=0;overflow=hidden;" vertex="1" parent="5DiPYkisPRgFO6FxNOpy-11">
          <mxGeometry x="820" width="90" height="40" as="geometry">
            <mxRectangle width="90" height="40" as="alternateBounds" />
          </mxGeometry>
        </mxCell>
        <mxCell id="5DiPYkisPRgFO6FxNOpy-17" value="data" style="shape=partialRectangle;html=1;whiteSpace=wrap;connectable=0;fillColor=none;top=0;left=0;bottom=0;right=0;overflow=hidden;" vertex="1" parent="5DiPYkisPRgFO6FxNOpy-11">
          <mxGeometry x="910" width="60" height="40" as="geometry">
            <mxRectangle width="60" height="40" as="alternateBounds" />
          </mxGeometry>
        </mxCell>
        <mxCell id="5DiPYkisPRgFO6FxNOpy-27" value="" style="shape=tableRow;horizontal=0;startSize=0;swimlaneHead=0;swimlaneBody=0;top=0;left=0;bottom=0;right=0;collapsible=0;dropTarget=0;fillColor=none;points=[[0,0.5],[1,0.5]];portConstraint=eastwest;" vertex="1" parent="5DiPYkisPRgFO6FxNOpy-4">
          <mxGeometry y="120" width="970" height="40" as="geometry" />
        </mxCell>
        <mxCell id="5DiPYkisPRgFO6FxNOpy-28" value="data" style="shape=partialRectangle;html=1;whiteSpace=wrap;connectable=0;fillColor=none;top=0;left=0;bottom=0;right=0;overflow=hidden;" vertex="1" parent="5DiPYkisPRgFO6FxNOpy-27">
          <mxGeometry width="162" height="40" as="geometry">
            <mxRectangle width="162" height="40" as="alternateBounds" />
          </mxGeometry>
        </mxCell>
        <mxCell id="5DiPYkisPRgFO6FxNOpy-29" value="data" style="shape=partialRectangle;html=1;whiteSpace=wrap;connectable=0;fillColor=none;top=0;left=0;bottom=0;right=0;overflow=hidden;" vertex="1" parent="5DiPYkisPRgFO6FxNOpy-27">
          <mxGeometry x="162" width="388" height="40" as="geometry">
            <mxRectangle width="388" height="40" as="alternateBounds" />
          </mxGeometry>
        </mxCell>
        <mxCell id="5DiPYkisPRgFO6FxNOpy-30" value="data" style="shape=partialRectangle;html=1;whiteSpace=wrap;connectable=0;fillColor=none;top=0;left=0;bottom=0;right=0;overflow=hidden;" vertex="1" parent="5DiPYkisPRgFO6FxNOpy-27">
          <mxGeometry x="550" width="170" height="40" as="geometry">
            <mxRectangle width="170" height="40" as="alternateBounds" />
          </mxGeometry>
        </mxCell>
        <mxCell id="5DiPYkisPRgFO6FxNOpy-31" value="data" style="shape=partialRectangle;html=1;whiteSpace=wrap;connectable=0;fillColor=none;top=0;left=0;bottom=0;right=0;overflow=hidden;" vertex="1" parent="5DiPYkisPRgFO6FxNOpy-27">
          <mxGeometry x="720" width="100" height="40" as="geometry">
            <mxRectangle width="100" height="40" as="alternateBounds" />
          </mxGeometry>
        </mxCell>
        <mxCell id="5DiPYkisPRgFO6FxNOpy-32" value="data" style="shape=partialRectangle;html=1;whiteSpace=wrap;connectable=0;fillColor=none;top=0;left=0;bottom=0;right=0;overflow=hidden;" vertex="1" parent="5DiPYkisPRgFO6FxNOpy-27">
          <mxGeometry x="820" width="90" height="40" as="geometry">
            <mxRectangle width="90" height="40" as="alternateBounds" />
          </mxGeometry>
        </mxCell>
        <mxCell id="5DiPYkisPRgFO6FxNOpy-33" value="data" style="shape=partialRectangle;html=1;whiteSpace=wrap;connectable=0;fillColor=none;top=0;left=0;bottom=0;right=0;overflow=hidden;" vertex="1" parent="5DiPYkisPRgFO6FxNOpy-27">
          <mxGeometry x="910" width="60" height="40" as="geometry">
            <mxRectangle width="60" height="40" as="alternateBounds" />
          </mxGeometry>
        </mxCell>
        <mxCell id="5DiPYkisPRgFO6FxNOpy-92" value="" style="shape=tableRow;horizontal=0;startSize=0;swimlaneHead=0;swimlaneBody=0;top=0;left=0;bottom=0;right=0;collapsible=0;dropTarget=0;fillColor=none;points=[[0,0.5],[1,0.5]];portConstraint=eastwest;" vertex="1" parent="5DiPYkisPRgFO6FxNOpy-4">
          <mxGeometry y="160" width="970" height="40" as="geometry" />
        </mxCell>
        <mxCell id="5DiPYkisPRgFO6FxNOpy-93" value="data" style="shape=partialRectangle;html=1;whiteSpace=wrap;connectable=0;fillColor=none;top=0;left=0;bottom=0;right=0;overflow=hidden;" vertex="1" parent="5DiPYkisPRgFO6FxNOpy-92">
          <mxGeometry width="162" height="40" as="geometry">
            <mxRectangle width="162" height="40" as="alternateBounds" />
          </mxGeometry>
        </mxCell>
        <mxCell id="5DiPYkisPRgFO6FxNOpy-94" value="data" style="shape=partialRectangle;html=1;whiteSpace=wrap;connectable=0;fillColor=none;top=0;left=0;bottom=0;right=0;overflow=hidden;" vertex="1" parent="5DiPYkisPRgFO6FxNOpy-92">
          <mxGeometry x="162" width="388" height="40" as="geometry">
            <mxRectangle width="388" height="40" as="alternateBounds" />
          </mxGeometry>
        </mxCell>
        <mxCell id="5DiPYkisPRgFO6FxNOpy-95" value="data" style="shape=partialRectangle;html=1;whiteSpace=wrap;connectable=0;fillColor=none;top=0;left=0;bottom=0;right=0;overflow=hidden;" vertex="1" parent="5DiPYkisPRgFO6FxNOpy-92">
          <mxGeometry x="550" width="170" height="40" as="geometry">
            <mxRectangle width="170" height="40" as="alternateBounds" />
          </mxGeometry>
        </mxCell>
        <mxCell id="5DiPYkisPRgFO6FxNOpy-96" value="data" style="shape=partialRectangle;html=1;whiteSpace=wrap;connectable=0;fillColor=none;top=0;left=0;bottom=0;right=0;overflow=hidden;" vertex="1" parent="5DiPYkisPRgFO6FxNOpy-92">
          <mxGeometry x="720" width="100" height="40" as="geometry">
            <mxRectangle width="100" height="40" as="alternateBounds" />
          </mxGeometry>
        </mxCell>
        <mxCell id="5DiPYkisPRgFO6FxNOpy-97" value="data" style="shape=partialRectangle;html=1;whiteSpace=wrap;connectable=0;fillColor=none;top=0;left=0;bottom=0;right=0;overflow=hidden;" vertex="1" parent="5DiPYkisPRgFO6FxNOpy-92">
          <mxGeometry x="820" width="90" height="40" as="geometry">
            <mxRectangle width="90" height="40" as="alternateBounds" />
          </mxGeometry>
        </mxCell>
        <mxCell id="5DiPYkisPRgFO6FxNOpy-98" value="data" style="shape=partialRectangle;html=1;whiteSpace=wrap;connectable=0;fillColor=none;top=0;left=0;bottom=0;right=0;overflow=hidden;" vertex="1" parent="5DiPYkisPRgFO6FxNOpy-92">
          <mxGeometry x="910" width="60" height="40" as="geometry">
            <mxRectangle width="60" height="40" as="alternateBounds" />
          </mxGeometry>
        </mxCell>
        <mxCell id="5DiPYkisPRgFO6FxNOpy-99" value="" style="shape=tableRow;horizontal=0;startSize=0;swimlaneHead=0;swimlaneBody=0;top=0;left=0;bottom=0;right=0;collapsible=0;dropTarget=0;fillColor=none;points=[[0,0.5],[1,0.5]];portConstraint=eastwest;" vertex="1" parent="5DiPYkisPRgFO6FxNOpy-4">
          <mxGeometry y="200" width="970" height="40" as="geometry" />
        </mxCell>
        <mxCell id="5DiPYkisPRgFO6FxNOpy-100" value="data" style="shape=partialRectangle;html=1;whiteSpace=wrap;connectable=0;fillColor=none;top=0;left=0;bottom=0;right=0;overflow=hidden;" vertex="1" parent="5DiPYkisPRgFO6FxNOpy-99">
          <mxGeometry width="162" height="40" as="geometry">
            <mxRectangle width="162" height="40" as="alternateBounds" />
          </mxGeometry>
        </mxCell>
        <mxCell id="5DiPYkisPRgFO6FxNOpy-101" value="data" style="shape=partialRectangle;html=1;whiteSpace=wrap;connectable=0;fillColor=none;top=0;left=0;bottom=0;right=0;overflow=hidden;" vertex="1" parent="5DiPYkisPRgFO6FxNOpy-99">
          <mxGeometry x="162" width="388" height="40" as="geometry">
            <mxRectangle width="388" height="40" as="alternateBounds" />
          </mxGeometry>
        </mxCell>
        <mxCell id="5DiPYkisPRgFO6FxNOpy-102" value="data" style="shape=partialRectangle;html=1;whiteSpace=wrap;connectable=0;fillColor=none;top=0;left=0;bottom=0;right=0;overflow=hidden;" vertex="1" parent="5DiPYkisPRgFO6FxNOpy-99">
          <mxGeometry x="550" width="170" height="40" as="geometry">
            <mxRectangle width="170" height="40" as="alternateBounds" />
          </mxGeometry>
        </mxCell>
        <mxCell id="5DiPYkisPRgFO6FxNOpy-103" value="data" style="shape=partialRectangle;html=1;whiteSpace=wrap;connectable=0;fillColor=none;top=0;left=0;bottom=0;right=0;overflow=hidden;" vertex="1" parent="5DiPYkisPRgFO6FxNOpy-99">
          <mxGeometry x="720" width="100" height="40" as="geometry">
            <mxRectangle width="100" height="40" as="alternateBounds" />
          </mxGeometry>
        </mxCell>
        <mxCell id="5DiPYkisPRgFO6FxNOpy-104" value="data" style="shape=partialRectangle;html=1;whiteSpace=wrap;connectable=0;fillColor=none;top=0;left=0;bottom=0;right=0;overflow=hidden;" vertex="1" parent="5DiPYkisPRgFO6FxNOpy-99">
          <mxGeometry x="820" width="90" height="40" as="geometry">
            <mxRectangle width="90" height="40" as="alternateBounds" />
          </mxGeometry>
        </mxCell>
        <mxCell id="5DiPYkisPRgFO6FxNOpy-105" value="data" style="shape=partialRectangle;html=1;whiteSpace=wrap;connectable=0;fillColor=none;top=0;left=0;bottom=0;right=0;overflow=hidden;" vertex="1" parent="5DiPYkisPRgFO6FxNOpy-99">
          <mxGeometry x="910" width="60" height="40" as="geometry">
            <mxRectangle width="60" height="40" as="alternateBounds" />
          </mxGeometry>
        </mxCell>
        <mxCell id="5DiPYkisPRgFO6FxNOpy-106" value="" style="shape=tableRow;horizontal=0;startSize=0;swimlaneHead=0;swimlaneBody=0;top=0;left=0;bottom=0;right=0;collapsible=0;dropTarget=0;fillColor=none;points=[[0,0.5],[1,0.5]];portConstraint=eastwest;" vertex="1" parent="5DiPYkisPRgFO6FxNOpy-4">
          <mxGeometry y="240" width="970" height="40" as="geometry" />
        </mxCell>
        <mxCell id="5DiPYkisPRgFO6FxNOpy-107" value="data" style="shape=partialRectangle;html=1;whiteSpace=wrap;connectable=0;fillColor=none;top=0;left=0;bottom=0;right=0;overflow=hidden;" vertex="1" parent="5DiPYkisPRgFO6FxNOpy-106">
          <mxGeometry width="162" height="40" as="geometry">
            <mxRectangle width="162" height="40" as="alternateBounds" />
          </mxGeometry>
        </mxCell>
        <mxCell id="5DiPYkisPRgFO6FxNOpy-108" value="data" style="shape=partialRectangle;html=1;whiteSpace=wrap;connectable=0;fillColor=none;top=0;left=0;bottom=0;right=0;overflow=hidden;" vertex="1" parent="5DiPYkisPRgFO6FxNOpy-106">
          <mxGeometry x="162" width="388" height="40" as="geometry">
            <mxRectangle width="388" height="40" as="alternateBounds" />
          </mxGeometry>
        </mxCell>
        <mxCell id="5DiPYkisPRgFO6FxNOpy-109" value="data" style="shape=partialRectangle;html=1;whiteSpace=wrap;connectable=0;fillColor=none;top=0;left=0;bottom=0;right=0;overflow=hidden;" vertex="1" parent="5DiPYkisPRgFO6FxNOpy-106">
          <mxGeometry x="550" width="170" height="40" as="geometry">
            <mxRectangle width="170" height="40" as="alternateBounds" />
          </mxGeometry>
        </mxCell>
        <mxCell id="5DiPYkisPRgFO6FxNOpy-110" value="data" style="shape=partialRectangle;html=1;whiteSpace=wrap;connectable=0;fillColor=none;top=0;left=0;bottom=0;right=0;overflow=hidden;" vertex="1" parent="5DiPYkisPRgFO6FxNOpy-106">
          <mxGeometry x="720" width="100" height="40" as="geometry">
            <mxRectangle width="100" height="40" as="alternateBounds" />
          </mxGeometry>
        </mxCell>
        <mxCell id="5DiPYkisPRgFO6FxNOpy-111" value="data" style="shape=partialRectangle;html=1;whiteSpace=wrap;connectable=0;fillColor=none;top=0;left=0;bottom=0;right=0;overflow=hidden;" vertex="1" parent="5DiPYkisPRgFO6FxNOpy-106">
          <mxGeometry x="820" width="90" height="40" as="geometry">
            <mxRectangle width="90" height="40" as="alternateBounds" />
          </mxGeometry>
        </mxCell>
        <mxCell id="5DiPYkisPRgFO6FxNOpy-112" value="data" style="shape=partialRectangle;html=1;whiteSpace=wrap;connectable=0;fillColor=none;top=0;left=0;bottom=0;right=0;overflow=hidden;" vertex="1" parent="5DiPYkisPRgFO6FxNOpy-106">
          <mxGeometry x="910" width="60" height="40" as="geometry">
            <mxRectangle width="60" height="40" as="alternateBounds" />
          </mxGeometry>
        </mxCell>
        <mxCell id="5DiPYkisPRgFO6FxNOpy-113" value="" style="shape=tableRow;horizontal=0;startSize=0;swimlaneHead=0;swimlaneBody=0;top=0;left=0;bottom=0;right=0;collapsible=0;dropTarget=0;fillColor=none;points=[[0,0.5],[1,0.5]];portConstraint=eastwest;" vertex="1" parent="5DiPYkisPRgFO6FxNOpy-4">
          <mxGeometry y="280" width="970" height="40" as="geometry" />
        </mxCell>
        <mxCell id="5DiPYkisPRgFO6FxNOpy-114" value="data" style="shape=partialRectangle;html=1;whiteSpace=wrap;connectable=0;fillColor=none;top=0;left=0;bottom=0;right=0;overflow=hidden;" vertex="1" parent="5DiPYkisPRgFO6FxNOpy-113">
          <mxGeometry width="162" height="40" as="geometry">
            <mxRectangle width="162" height="40" as="alternateBounds" />
          </mxGeometry>
        </mxCell>
        <mxCell id="5DiPYkisPRgFO6FxNOpy-115" value="data" style="shape=partialRectangle;html=1;whiteSpace=wrap;connectable=0;fillColor=none;top=0;left=0;bottom=0;right=0;overflow=hidden;" vertex="1" parent="5DiPYkisPRgFO6FxNOpy-113">
          <mxGeometry x="162" width="388" height="40" as="geometry">
            <mxRectangle width="388" height="40" as="alternateBounds" />
          </mxGeometry>
        </mxCell>
        <mxCell id="5DiPYkisPRgFO6FxNOpy-116" value="data" style="shape=partialRectangle;html=1;whiteSpace=wrap;connectable=0;fillColor=none;top=0;left=0;bottom=0;right=0;overflow=hidden;" vertex="1" parent="5DiPYkisPRgFO6FxNOpy-113">
          <mxGeometry x="550" width="170" height="40" as="geometry">
            <mxRectangle width="170" height="40" as="alternateBounds" />
          </mxGeometry>
        </mxCell>
        <mxCell id="5DiPYkisPRgFO6FxNOpy-117" value="data" style="shape=partialRectangle;html=1;whiteSpace=wrap;connectable=0;fillColor=none;top=0;left=0;bottom=0;right=0;overflow=hidden;" vertex="1" parent="5DiPYkisPRgFO6FxNOpy-113">
          <mxGeometry x="720" width="100" height="40" as="geometry">
            <mxRectangle width="100" height="40" as="alternateBounds" />
          </mxGeometry>
        </mxCell>
        <mxCell id="5DiPYkisPRgFO6FxNOpy-118" value="data" style="shape=partialRectangle;html=1;whiteSpace=wrap;connectable=0;fillColor=none;top=0;left=0;bottom=0;right=0;overflow=hidden;" vertex="1" parent="5DiPYkisPRgFO6FxNOpy-113">
          <mxGeometry x="820" width="90" height="40" as="geometry">
            <mxRectangle width="90" height="40" as="alternateBounds" />
          </mxGeometry>
        </mxCell>
        <mxCell id="5DiPYkisPRgFO6FxNOpy-119" value="data" style="shape=partialRectangle;html=1;whiteSpace=wrap;connectable=0;fillColor=none;top=0;left=0;bottom=0;right=0;overflow=hidden;" vertex="1" parent="5DiPYkisPRgFO6FxNOpy-113">
          <mxGeometry x="910" width="60" height="40" as="geometry">
            <mxRectangle width="60" height="40" as="alternateBounds" />
          </mxGeometry>
        </mxCell>
        <mxCell id="5DiPYkisPRgFO6FxNOpy-120" value="" style="shape=tableRow;horizontal=0;startSize=0;swimlaneHead=0;swimlaneBody=0;top=0;left=0;bottom=0;right=0;collapsible=0;dropTarget=0;fillColor=none;points=[[0,0.5],[1,0.5]];portConstraint=eastwest;" vertex="1" parent="5DiPYkisPRgFO6FxNOpy-4">
          <mxGeometry y="320" width="970" height="40" as="geometry" />
        </mxCell>
        <mxCell id="5DiPYkisPRgFO6FxNOpy-121" value="data" style="shape=partialRectangle;html=1;whiteSpace=wrap;connectable=0;fillColor=none;top=0;left=0;bottom=0;right=0;overflow=hidden;" vertex="1" parent="5DiPYkisPRgFO6FxNOpy-120">
          <mxGeometry width="162" height="40" as="geometry">
            <mxRectangle width="162" height="40" as="alternateBounds" />
          </mxGeometry>
        </mxCell>
        <mxCell id="5DiPYkisPRgFO6FxNOpy-122" value="data" style="shape=partialRectangle;html=1;whiteSpace=wrap;connectable=0;fillColor=none;top=0;left=0;bottom=0;right=0;overflow=hidden;" vertex="1" parent="5DiPYkisPRgFO6FxNOpy-120">
          <mxGeometry x="162" width="388" height="40" as="geometry">
            <mxRectangle width="388" height="40" as="alternateBounds" />
          </mxGeometry>
        </mxCell>
        <mxCell id="5DiPYkisPRgFO6FxNOpy-123" value="data" style="shape=partialRectangle;html=1;whiteSpace=wrap;connectable=0;fillColor=none;top=0;left=0;bottom=0;right=0;overflow=hidden;" vertex="1" parent="5DiPYkisPRgFO6FxNOpy-120">
          <mxGeometry x="550" width="170" height="40" as="geometry">
            <mxRectangle width="170" height="40" as="alternateBounds" />
          </mxGeometry>
        </mxCell>
        <mxCell id="5DiPYkisPRgFO6FxNOpy-124" value="data" style="shape=partialRectangle;html=1;whiteSpace=wrap;connectable=0;fillColor=none;top=0;left=0;bottom=0;right=0;overflow=hidden;" vertex="1" parent="5DiPYkisPRgFO6FxNOpy-120">
          <mxGeometry x="720" width="100" height="40" as="geometry">
            <mxRectangle width="100" height="40" as="alternateBounds" />
          </mxGeometry>
        </mxCell>
        <mxCell id="5DiPYkisPRgFO6FxNOpy-125" value="data" style="shape=partialRectangle;html=1;whiteSpace=wrap;connectable=0;fillColor=none;top=0;left=0;bottom=0;right=0;overflow=hidden;" vertex="1" parent="5DiPYkisPRgFO6FxNOpy-120">
          <mxGeometry x="820" width="90" height="40" as="geometry">
            <mxRectangle width="90" height="40" as="alternateBounds" />
          </mxGeometry>
        </mxCell>
        <mxCell id="5DiPYkisPRgFO6FxNOpy-126" value="data" style="shape=partialRectangle;html=1;whiteSpace=wrap;connectable=0;fillColor=none;top=0;left=0;bottom=0;right=0;overflow=hidden;" vertex="1" parent="5DiPYkisPRgFO6FxNOpy-120">
          <mxGeometry x="910" width="60" height="40" as="geometry">
            <mxRectangle width="60" height="40" as="alternateBounds" />
          </mxGeometry>
        </mxCell>
        <mxCell id="5DiPYkisPRgFO6FxNOpy-127" value="" style="shape=tableRow;horizontal=0;startSize=0;swimlaneHead=0;swimlaneBody=0;top=0;left=0;bottom=0;right=0;collapsible=0;dropTarget=0;fillColor=none;points=[[0,0.5],[1,0.5]];portConstraint=eastwest;" vertex="1" parent="5DiPYkisPRgFO6FxNOpy-4">
          <mxGeometry y="360" width="970" height="40" as="geometry" />
        </mxCell>
        <mxCell id="5DiPYkisPRgFO6FxNOpy-128" value="data" style="shape=partialRectangle;html=1;whiteSpace=wrap;connectable=0;fillColor=none;top=0;left=0;bottom=0;right=0;overflow=hidden;" vertex="1" parent="5DiPYkisPRgFO6FxNOpy-127">
          <mxGeometry width="162" height="40" as="geometry">
            <mxRectangle width="162" height="40" as="alternateBounds" />
          </mxGeometry>
        </mxCell>
        <mxCell id="5DiPYkisPRgFO6FxNOpy-129" value="data" style="shape=partialRectangle;html=1;whiteSpace=wrap;connectable=0;fillColor=none;top=0;left=0;bottom=0;right=0;overflow=hidden;" vertex="1" parent="5DiPYkisPRgFO6FxNOpy-127">
          <mxGeometry x="162" width="388" height="40" as="geometry">
            <mxRectangle width="388" height="40" as="alternateBounds" />
          </mxGeometry>
        </mxCell>
        <mxCell id="5DiPYkisPRgFO6FxNOpy-130" value="data" style="shape=partialRectangle;html=1;whiteSpace=wrap;connectable=0;fillColor=none;top=0;left=0;bottom=0;right=0;overflow=hidden;" vertex="1" parent="5DiPYkisPRgFO6FxNOpy-127">
          <mxGeometry x="550" width="170" height="40" as="geometry">
            <mxRectangle width="170" height="40" as="alternateBounds" />
          </mxGeometry>
        </mxCell>
        <mxCell id="5DiPYkisPRgFO6FxNOpy-131" value="data" style="shape=partialRectangle;html=1;whiteSpace=wrap;connectable=0;fillColor=none;top=0;left=0;bottom=0;right=0;overflow=hidden;" vertex="1" parent="5DiPYkisPRgFO6FxNOpy-127">
          <mxGeometry x="720" width="100" height="40" as="geometry">
            <mxRectangle width="100" height="40" as="alternateBounds" />
          </mxGeometry>
        </mxCell>
        <mxCell id="5DiPYkisPRgFO6FxNOpy-132" value="data" style="shape=partialRectangle;html=1;whiteSpace=wrap;connectable=0;fillColor=none;top=0;left=0;bottom=0;right=0;overflow=hidden;" vertex="1" parent="5DiPYkisPRgFO6FxNOpy-127">
          <mxGeometry x="820" width="90" height="40" as="geometry">
            <mxRectangle width="90" height="40" as="alternateBounds" />
          </mxGeometry>
        </mxCell>
        <mxCell id="5DiPYkisPRgFO6FxNOpy-133" value="data" style="shape=partialRectangle;html=1;whiteSpace=wrap;connectable=0;fillColor=none;top=0;left=0;bottom=0;right=0;overflow=hidden;" vertex="1" parent="5DiPYkisPRgFO6FxNOpy-127">
          <mxGeometry x="910" width="60" height="40" as="geometry">
            <mxRectangle width="60" height="40" as="alternateBounds" />
          </mxGeometry>
        </mxCell>
        <mxCell id="5DiPYkisPRgFO6FxNOpy-134" value="" style="shape=tableRow;horizontal=0;startSize=0;swimlaneHead=0;swimlaneBody=0;top=0;left=0;bottom=0;right=0;collapsible=0;dropTarget=0;fillColor=none;points=[[0,0.5],[1,0.5]];portConstraint=eastwest;" vertex="1" parent="5DiPYkisPRgFO6FxNOpy-4">
          <mxGeometry y="400" width="970" height="40" as="geometry" />
        </mxCell>
        <mxCell id="5DiPYkisPRgFO6FxNOpy-135" value="data" style="shape=partialRectangle;html=1;whiteSpace=wrap;connectable=0;fillColor=none;top=0;left=0;bottom=0;right=0;overflow=hidden;" vertex="1" parent="5DiPYkisPRgFO6FxNOpy-134">
          <mxGeometry width="162" height="40" as="geometry">
            <mxRectangle width="162" height="40" as="alternateBounds" />
          </mxGeometry>
        </mxCell>
        <mxCell id="5DiPYkisPRgFO6FxNOpy-136" value="data" style="shape=partialRectangle;html=1;whiteSpace=wrap;connectable=0;fillColor=none;top=0;left=0;bottom=0;right=0;overflow=hidden;" vertex="1" parent="5DiPYkisPRgFO6FxNOpy-134">
          <mxGeometry x="162" width="388" height="40" as="geometry">
            <mxRectangle width="388" height="40" as="alternateBounds" />
          </mxGeometry>
        </mxCell>
        <mxCell id="5DiPYkisPRgFO6FxNOpy-137" value="data" style="shape=partialRectangle;html=1;whiteSpace=wrap;connectable=0;fillColor=none;top=0;left=0;bottom=0;right=0;overflow=hidden;" vertex="1" parent="5DiPYkisPRgFO6FxNOpy-134">
          <mxGeometry x="550" width="170" height="40" as="geometry">
            <mxRectangle width="170" height="40" as="alternateBounds" />
          </mxGeometry>
        </mxCell>
        <mxCell id="5DiPYkisPRgFO6FxNOpy-138" value="data" style="shape=partialRectangle;html=1;whiteSpace=wrap;connectable=0;fillColor=none;top=0;left=0;bottom=0;right=0;overflow=hidden;" vertex="1" parent="5DiPYkisPRgFO6FxNOpy-134">
          <mxGeometry x="720" width="100" height="40" as="geometry">
            <mxRectangle width="100" height="40" as="alternateBounds" />
          </mxGeometry>
        </mxCell>
        <mxCell id="5DiPYkisPRgFO6FxNOpy-139" value="data" style="shape=partialRectangle;html=1;whiteSpace=wrap;connectable=0;fillColor=none;top=0;left=0;bottom=0;right=0;overflow=hidden;" vertex="1" parent="5DiPYkisPRgFO6FxNOpy-134">
          <mxGeometry x="820" width="90" height="40" as="geometry">
            <mxRectangle width="90" height="40" as="alternateBounds" />
          </mxGeometry>
        </mxCell>
        <mxCell id="5DiPYkisPRgFO6FxNOpy-140" value="data" style="shape=partialRectangle;html=1;whiteSpace=wrap;connectable=0;fillColor=none;top=0;left=0;bottom=0;right=0;overflow=hidden;" vertex="1" parent="5DiPYkisPRgFO6FxNOpy-134">
          <mxGeometry x="910" width="60" height="40" as="geometry">
            <mxRectangle width="60" height="40" as="alternateBounds" />
          </mxGeometry>
        </mxCell>
        <mxCell id="5DiPYkisPRgFO6FxNOpy-14" value="&lt;font style=&quot;font-size: 25px;&quot;&gt;&amp;lt;&amp;lt; TITLE &amp;gt;&amp;gt;&lt;/font&gt;" style="text;html=1;align=center;verticalAlign=middle;whiteSpace=wrap;rounded=0;" vertex="1" parent="1">
          <mxGeometry x="462.5" y="130" width="165" height="30" as="geometry" />
        </mxCell>
      </root>
    </mxGraphModel>
  </diagram>
</mxfile>
